<?xml version="1.0" standalone="no"?>
<!DOCTYPE svg PUBLIC "-//W3C//DTD SVG 20010904//EN"
 "http://www.w3.org/TR/2001/REC-SVG-20010904/DTD/svg10.dtd">
<svg version="1.0" xmlns="http://www.w3.org/2000/svg"
 width="30.000000pt" height="30.000000pt" viewBox="0 0 100.000000 100.000000"
 preserveAspectRatio="xMidYMid meet">
<metadata>
Created by potrace 1.16, written by Peter Selinger 2001-2019
</metadata>
<g transform="translate(0.000000,100.000000) scale(0.100000,-0.100000)"
fill="#ff9900" stroke="black" stroke-width="10">
<path d="M434 991 c-11 -5 -33 -23 -47 -41 -23 -26 -27 -41 -27 -91 0 -53 3
-63 33 -96 29 -31 41 -37 89 -41 104 -8 162 48 155 151 -3 49 -8 63 -35 89
-26 27 -40 32 -89 35 -32 1 -67 -1 -79 -6z"/>
<path d="M363 699 c-55 -16 -76 -54 -117 -211 -43 -167 -41 -188 19 -188 18 0
37 5 41 11 4 7 17 51 30 98 12 47 23 74 23 59 l1 -28 140 0 140 0 1 28 c0 15
11 -12 23 -59 13 -47 26 -91 30 -98 4 -6 23 -11 41 -11 59 0 61 20 19 187 -42
161 -61 196 -122 213 -45 12 -225 12 -269 -1z"/>
<path d="M360 350 l0 -70 140 0 140 0 0 70 0 70 -140 0 -140 0 0 -70z"/>
<path d="M360 142 c0 -127 5 -142 50 -142 45 0 50 15 50 142 l0 118 -50 0 -50
0 0 -118z"/>
<path d="M540 142 c0 -127 5 -142 50 -142 45 0 50 15 50 142 l0 118 -50 0 -50
0 0 -118z"/>
</g>
</svg>
